<svg xmlns="http://www.w3.org/2000/svg" width="480" height="360" viewBox="0 0 480 360">
  <g fill="none" fill-rule="evenodd">
    <polygon fill="#FC9" points="99.51 76.618 190.019 167.128 99.51 257.638 9 167.128"/>
    <circle cx="311.51" cy="102.128" r="75" fill="#702D00"/>
    <polygon fill="#FF9B38" points="224.51 200.128 361.51 350.128 85.193 350.128"/>
    <polygon fill="#EB7500" points="246.306 149.714 247.013 150.421 372.878 24.556 372.171 23.849"/>
    <polygon fill="#EB7500" points="230.75 180.827 231.457 181.534 326.209 86.782 325.502 86.075"/>
    <polygon fill="#EB7500" points="286.611 141.229 287.319 141.936 419.548 9.707 418.84 9"/>
    <polygon fill="#FC9" points="249.01 293.628 249.01 294.628 427.01 294.628 427.01 293.628"/>
    <polygon fill="#FC9" points="216.01 304.628 216.01 305.628 350.01 305.628 350.01 304.628"/>
    <polygon fill="#FC9" points="283.51 316.128 283.51 317.128 470.51 317.128 470.51 316.128"/>
    <polygon fill="#702D00" points="61.51 216.128 60.51 216.128 60.51 64.128 61.51 64.128"/>
    <polygon fill="#702D00" points="50.51 244.128 49.51 244.128 49.51 130.128 50.51 130.128"/>
    <polygon fill="#702D00" points="39.51 187.128 38.51 187.128 38.51 27.128 39.51 27.128"/>
  </g>
</svg>
